<svg xmlns="http://www.w3.org/2000/svg" width="182" height="148" viewBox="0 0 182 148" fill="none">
  <g filter="url(#filter0_d_9_348)">
    <circle cx="91" cy="74" r="36.5" fill="url(#paint0_linear_9_348)" stroke="#09189B" stroke-width="7"/>
    <path d="M91.0002 88C91.0002 88 91.0002 82.2932 91.0002 78.6366C94.485 78.6366 98.1806 77.4578 99.9442 76.8117C100.653 76.5522 101.309 76.1768 101.887 75.6921C103.539 74.3077 107.089 71.0066 109 66.8C111.104 62.1676 110.276 55.5744 109.926 53.4285C109.858 53.0147 109.499 52.7243 109.08 52.7243L108.959 52.7243C108.538 52.7243 108.197 52.3831 108.197 51.9622V51.9622C108.197 51.5413 108.538 51.2001 108.959 51.2001L116.638 51.2001C117.059 51.2001 117.4 51.5413 117.4 51.9622V51.9622C117.4 52.3831 117.059 52.7243 116.638 52.7243L116.6 52.7243C116.158 52.7243 115.8 53.0825 115.8 53.5243L115.8 55.4919C115.8 55.534 115.801 55.5696 115.803 55.6116C115.834 56.4119 116.133 65.5075 113.767 70.7976C111.53 75.8007 108.929 78.2333 104.321 81.6852C99.8032 85.0699 91.0002 88 91.0002 88Z" fill="#09189B"/>
    <path d="M91.0002 88C91.0002 88 91.0002 82.2932 91.0002 78.6366C87.5153 78.6366 83.8197 77.4578 82.0561 76.8118C81.3475 76.5522 80.6911 76.1768 80.1129 75.6921C78.4615 74.3077 74.9109 71.0066 73.0001 66.8C70.8959 62.1677 71.7241 55.5744 72.0743 53.4285C72.1418 53.0147 72.5009 52.7243 72.9202 52.7243L73.0416 52.7243C73.4625 52.7243 73.8038 52.3831 73.8038 51.9622V51.9622C73.8038 51.5413 73.4625 51.2001 73.0416 51.2001L65.3622 51.2001C64.9413 51.2001 64.6001 51.5413 64.6001 51.9622V51.9622C64.6001 52.3831 64.9413 52.7243 65.3622 52.7243L65.4001 52.7243C65.8419 52.7243 66.2001 53.0825 66.2001 53.5243L66.2001 55.4919C66.2001 55.534 66.1994 55.5696 66.1977 55.6117C66.1664 56.4119 65.8673 65.5075 68.2331 70.7976C70.4706 75.8007 73.0711 78.2333 77.6789 81.6852C82.1971 85.0699 91.0002 88 91.0002 88Z" fill="#09189B"/>
    <path d="M88.3334 81.7778H93.7979V103.139H88.3334V81.7778Z" fill="#09189B"/>
    <path d="M83.5926 103.407C83.5926 102.262 84.5212 101.333 85.6667 101.333H96.3333C97.4788 101.333 98.4074 102.262 98.4074 103.407V103.407C98.4074 104.553 97.4788 105.482 96.3333 105.482H85.6667C84.5212 105.482 83.5926 104.553 83.5926 103.407V103.407Z" fill="#09189B"/>
  </g>
  <defs>
    <filter id="filter0_d_9_348" x="47" y="34" width="88" height="88" filterUnits="userSpaceOnUse" color-interpolation-filters="sRGB">
      <feFlood flood-opacity="0" result="BackgroundImageFix"/>
      <feColorMatrix in="SourceAlpha" type="matrix" values="0 0 0 0 0 0 0 0 0 0 0 0 0 0 0 0 0 0 127 0" result="hardAlpha"/>
      <feOffset dy="4"/>
      <feGaussianBlur stdDeviation="2"/>
      <feComposite in2="hardAlpha" operator="out"/>
      <feColorMatrix type="matrix" values="0 0 0 0 0 0 0 0 0 0 0 0 0 0 0 0 0 0 0.25 0"/>
      <feBlend mode="normal" in2="BackgroundImageFix" result="effect1_dropShadow_9_348"/>
      <feBlend mode="normal" in="SourceGraphic" in2="effect1_dropShadow_9_348" result="shape"/>
    </filter>
    <linearGradient id="paint0_linear_9_348" x1="91" y1="34" x2="91" y2="114" gradientUnits="userSpaceOnUse">
      <stop stop-color="#F2F54D"/>
      <stop offset="0.489583" stop-color="#F8F999" stop-opacity="0.567708"/>
      <stop offset="1" stop-color="#FFFEFE" stop-opacity="0"/>
    </linearGradient>
  </defs>
</svg>