<svg xmlns="http://www.w3.org/2000/svg" viewBox="0 0 512 512" style="background-image: linear-gradient(180deg, #220d04, #331407, #6e290c);">
  <g>
    <path fill="#fff" d="M256,0C114.613,0,0,114.497,0,256s114.613,256,256,256s256-114.497,256-256S397.387,0,256,0z M256,469.333
      c-114.875,0-213.333-98.458-213.333-213.333S141.125,42.667,256,42.667S469.333,141.125,469.333,256S370.875,469.333,256,469.333z"/>
    <polygon fill="#fff" points="338.453,139.323 305.678,139.323 284.426,112.789 263.172,139.323 230.398,139.323 261.621,160.605 
      247.539,188.724 284.426,167.374 321.311,188.724 307.229,160.605    "/>
    <path fill="#fff" d="M256,320.002c-22.091,0-40,17.908-40,40c0,22.092,17.909,40,40,40s40-17.908,40-40
      C296,337.91,278.091,320.002,256,320.002z"/>
  </g>
</svg>
